<?xml version="1.0" standalone="no"?>
<!DOCTYPE svg PUBLIC "-//W3C//DTD SVG 20010904//EN"
 "http://www.w3.org/TR/2001/REC-SVG-20010904/DTD/svg10.dtd">
<svg version="1.0" xmlns="http://www.w3.org/2000/svg"
 width="93.000000pt" height="93.000000pt" viewBox="0 0 93.000000 93.000000"
 preserveAspectRatio="xMidYMid meet">
<metadata>
Created by potrace 1.11, written by Peter Selinger 2001-2013
</metadata>
<g transform="translate(0.000000,93.000000) scale(0.100000,-0.100000)"
fill="#000000" stroke="none">
<path d="M407 900 c-66 -21 -128 -58 -172 -104 -16 -17 -34 -30 -38 -28 -5 1
-6 -2 -3 -7 3 -5 -7 -21 -22 -37 -15 -15 -21 -24 -14 -20 19 11 14 -1 -10 -25
-13 -12 -18 -19 -11 -15 14 8 -6 -55 -22 -66 -6 -5 -5 -8 3 -8 8 0 10 -5 6
-12 -5 -7 -7 -25 -6 -41 1 -16 -2 -26 -7 -23 -5 4 -13 2 -16 -4 -4 -6 -1 -9 6
-8 13 3 33 -77 24 -100 -3 -7 -1 -11 4 -8 8 5 26 -49 22 -67 -1 -5 3 -6 9 -2
5 3 10 -1 10 -9 0 -8 7 -22 16 -30 8 -9 13 -16 9 -16 -9 0 11 -19 78 -73 32
-26 65 -47 73 -47 8 0 13 -4 9 -9 -3 -5 0 -13 6 -17 8 -5 9 -3 4 6 -6 10 -4
11 11 6 72 -30 199 -35 264 -12 166 61 272 194 286 359 24 281 -252 503 -519
417z m194 -15 c88 -15 183 -79 238 -159 71 -104 83 -256 28 -374 -26 -56 -106
-145 -124 -138 -8 3 -11 1 -8 -4 3 -6 1 -10 -5 -10 -6 0 -19 -7 -27 -16 -9 -8
-24 -13 -35 -11 -10 3 -16 2 -13 -3 7 -12 -32 -21 -113 -26 -75 -5 -157 10
-147 26 3 6 0 8 -7 5 -16 -6 -83 28 -83 43 0 6 -4 14 -9 19 -5 5 -6 3 -2 -4
15 -27 -10 -11 -47 29 -21 23 -36 47 -33 54 3 8 0 16 -6 20 -7 4 -8 3 -4 -4 4
-7 5 -12 2 -12 -10 0 -36 59 -38 85 -1 14 -5 25 -9 25 -3 0 -7 32 -8 71 -2 56
1 69 11 63 10 -6 11 -5 1 8 -7 8 -9 18 -5 22 4 4 7 11 7 14 0 19 29 92 37 92
4 0 8 7 8 15 0 8 5 15 12 15 6 0 9 3 5 6 -7 7 35 50 46 46 5 -1 6 1 3 6 -6 10
65 63 109 80 65 26 131 31 216 17z"/>
<path d="M453 795 c0 -8 4 -12 9 -9 5 3 6 10 3 15 -9 13 -12 11 -12 -6z"/>
<path d="M320 779 c0 -5 -5 -7 -12 -3 -6 4 -8 3 -5 -3 7 -11 -30 -46 -41 -39
-13 8 -8 -40 5 -56 7 -8 9 -18 5 -22 -4 -4 0 -6 8 -4 8 2 14 -4 15 -12 1 -8 6
-14 12 -13 6 1 32 -21 59 -50 45 -48 53 -52 94 -53 25 0 48 4 51 9 3 5 5 28 4
53 -2 29 1 42 8 37 6 -3 7 -1 3 6 -4 6 -11 9 -15 7 -4 -3 -42 31 -85 75 -71
73 -106 95 -106 68z m96 -103 c69 -70 90 -97 62 -80 -10 6 -10 4 0 -8 11 -13
11 -18 0 -24 -28 -18 -87 13 -72 37 4 8 3 9 -4 5 -13 -8 -89 61 -84 76 1 5 -2
7 -7 4 -22 -14 -21 17 1 39 12 12 25 23 26 24 2 1 37 -32 78 -73z"/>
<path d="M334 686 c1 -8 5 -18 8 -22 4 -3 5 1 4 10 -1 8 -5 18 -8 22 -4 3 -5
-1 -4 -10z"/>
<path d="M416 632 c-3 -4 4 -9 15 -9 23 -2 25 3 4 10 -8 4 -16 3 -19 -1z"/>
<path d="M681 762 c-18 -15 -54 -48 -79 -74 -24 -26 -48 -46 -52 -43 -4 2 -7
-1 -8 -8 0 -7 -3 -30 -5 -51 -7 -52 0 -65 29 -60 17 3 22 1 18 -10 -3 -8 -12
-12 -19 -10 -7 3 -17 -3 -22 -13 -13 -25 -10 -108 3 -106 6 1 43 -32 83 -73
39 -40 78 -74 86 -74 8 0 19 9 25 20 6 11 16 17 22 14 6 -4 8 -3 5 3 -4 6 2
18 13 28 11 10 20 21 20 24 0 4 -39 46 -87 94 -67 67 -91 86 -106 81 -14 -4
-18 -2 -15 7 3 8 18 14 35 14 17 0 30 5 29 12 -1 6 26 40 59 75 93 98 90 88
42 136 l-42 41 -34 -27z m59 -37 l23 -25 -53 -54 c-30 -30 -57 -53 -61 -50 -4
2 -11 -1 -15 -7 -5 -8 -3 -10 7 -4 8 5 7 0 -3 -10 -10 -10 -31 -19 -47 -20
-27 -1 -29 1 -25 29 2 20 24 50 71 97 38 38 71 68 74 69 3 0 16 -11 29 -25z
m-117 -264 c-2 -6 1 -10 6 -8 4 1 37 -26 71 -61 l63 -63 -27 -26 -28 -25 -59
61 c-33 34 -58 65 -55 70 3 5 -2 8 -11 7 -12 -1 -17 7 -18 24 0 14 4 28 8 31
13 10 52 2 50 -10z"/>
<path d="M600 630 c-12 -7 -10 -9 7 -7 12 0 19 5 17 9 -6 10 -6 10 -24 -2z"/>
<path d="M656 628 c3 -5 10 -6 15 -3 13 9 11 12 -6 12 -8 0 -12 -4 -9 -9z"/>
<path d="M655 390 c-3 -5 -1 -10 4 -10 6 0 11 5 11 10 0 6 -2 10 -4 10 -3 0
-8 -4 -11 -10z"/>
<path d="M693 355 c0 -8 4 -12 9 -9 5 3 6 10 3 15 -9 13 -12 11 -12 -6z"/>
<path d="M459 758 c-5 -18 -6 -38 -1 -34 7 8 12 36 6 36 -2 0 -4 -1 -5 -2z"/>
<path d="M486 748 c3 -5 10 -6 15 -3 13 9 11 12 -6 12 -8 0 -12 -4 -9 -9z"/>
<path d="M535 749 c-3 -4 2 -6 10 -5 21 3 28 13 10 13 -9 0 -18 -4 -20 -8z"/>
<path d="M575 711 c-3 -5 -2 -12 3 -15 5 -3 9 1 9 9 0 17 -3 19 -12 6z"/>
<path d="M506 688 c3 -4 9 -8 15 -8 5 0 9 4 9 8 0 5 -7 9 -15 9 -8 0 -12 -4
-9 -9z"/>
<path d="M215 630 c3 -5 8 -10 11 -10 2 0 4 5 4 10 0 6 -5 10 -11 10 -5 0 -7
-4 -4 -10z"/>
<path d="M214 586 c1 -8 5 -18 8 -22 4 -3 5 1 4 10 -1 8 -5 18 -8 22 -4 3 -5
-1 -4 -10z"/>
<path d="M254 586 c1 -8 5 -18 8 -22 4 -3 5 1 4 10 -1 8 -5 18 -8 22 -4 3 -5
-1 -4 -10z"/>
<path d="M726 588 c3 -5 10 -6 15 -3 13 9 11 12 -6 12 -8 0 -12 -4 -9 -9z"/>
<path d="M294 526 c1 -8 5 -18 8 -22 4 -3 5 1 4 10 -1 8 -5 18 -8 22 -4 3 -5
-1 -4 -10z"/>
<path d="M689 527 c6 -8 7 -18 3 -22 -4 -5 -1 -5 6 -1 10 6 10 11 1 22 -6 8
-14 14 -16 14 -3 0 0 -6 6 -13z"/>
<path d="M170 509 c0 -5 5 -7 10 -4 6 3 10 8 10 11 0 2 -4 4 -10 4 -5 0 -10
-5 -10 -11z"/>
<path d="M376 512 c-3 -5 1 -9 9 -9 8 0 12 4 9 9 -3 4 -7 8 -9 8 -2 0 -6 -4
-9 -8z"/>
<path d="M739 518 c-5 -18 -6 -38 -1 -34 7 8 12 36 6 36 -2 0 -4 -1 -5 -2z"/>
<path d="M364 448 c-33 -32 -64 -55 -69 -50 -4 4 -5 2 -2 -4 4 -6 -5 -22 -18
-34 -23 -22 -36 -68 -16 -56 5 4 27 -13 48 -36 21 -24 37 -41 36 -39 -7 10 71
80 81 74 6 -3 8 -2 3 2 -4 5 14 30 39 56 38 39 47 55 49 87 1 21 4 43 7 48 4
5 -17 9 -45 10 -50 1 -54 -1 -113 -58z m101 22 c-8 13 -6 13 7 2 27 -22 13
-51 -62 -124 -58 -59 -73 -68 -85 -58 -8 7 -12 16 -9 21 3 5 0 8 -8 7 -7 -2
-13 4 -13 12 0 8 7 14 15 12 8 -2 12 0 7 4 -9 10 23 45 35 38 4 -3 7 -1 6 4
-2 5 17 29 40 51 38 36 46 40 60 29 13 -11 14 -11 7 2z"/>
<path d="M453 425 c0 -8 4 -12 9 -9 5 3 6 10 3 15 -9 13 -12 11 -12 -6z"/>
<path d="M335 361 c-3 -5 -2 -12 3 -15 5 -3 9 1 9 9 0 17 -3 19 -12 6z"/>
<path d="M333 305 c0 -8 4 -12 9 -9 5 3 6 10 3 15 -9 13 -12 11 -12 -6z"/>
<path d="M339 498 c-5 -18 -6 -38 -1 -34 7 8 12 36 6 36 -2 0 -4 -1 -5 -2z"/>
<path d="M176 472 c-2 -4 -1 -14 4 -22 7 -11 9 -9 7 8 -1 24 -3 26 -11 14z"/>
<path d="M294 466 c1 -8 5 -18 8 -22 4 -3 5 1 4 10 -1 8 -5 18 -8 22 -4 3 -5
-1 -4 -10z"/>
<path d="M217 445 c-4 -8 -3 -16 1 -19 4 -3 9 4 9 15 2 23 -3 25 -10 4z"/>
<path d="M776 432 c-3 -5 1 -9 9 -9 8 0 12 4 9 9 -3 4 -7 8 -9 8 -2 0 -6 -4
-9 -8z"/>
<path d="M539 358 c-5 -18 -6 -38 -1 -34 7 8 12 36 6 36 -2 0 -4 -1 -5 -2z"/>
<path d="M456 312 c-2 -4 -1 -14 4 -22 7 -11 9 -9 7 8 -1 24 -3 26 -11 14z"/>
<path d="M497 285 c-4 -8 -3 -16 1 -19 4 -3 9 4 9 15 2 23 -3 25 -10 4z"/>
<path d="M256 277 c3 -10 9 -15 12 -12 3 3 0 11 -7 18 -10 9 -11 8 -5 -6z"/>
<path d="M406 268 c3 -5 10 -6 15 -3 13 9 11 12 -6 12 -8 0 -12 -4 -9 -9z"/>
<path d="M494 226 c1 -8 5 -18 8 -22 4 -3 5 1 4 10 -1 8 -5 18 -8 22 -4 3 -5
-1 -4 -10z"/>
<path d="M575 229 c-3 -4 2 -6 10 -5 21 3 28 13 10 13 -9 0 -18 -4 -20 -8z"/>
<path d="M413 185 c0 -8 4 -12 9 -9 5 3 6 10 3 15 -9 13 -12 11 -12 -6z"/>
<path d="M79 603 c-13 -16 -12 -17 4 -4 9 7 17 15 17 17 0 8 -8 3 -21 -13z"/>
<path d="M75 560 c-4 -6 -11 -7 -17 -4 -7 4 -8 2 -4 -5 6 -9 11 -9 22 0 14 11
18 19 10 19 -3 0 -8 -5 -11 -10z"/>
<path d="M95 441 c-3 -5 -2 -12 3 -15 5 -3 9 1 9 9 0 17 -3 19 -12 6z"/>
<path d="M15 410 c-3 -5 -1 -10 4 -10 6 0 11 5 11 10 0 6 -2 10 -4 10 -3 0 -8
-4 -11 -10z"/>
<path d="M96 391 c-3 -5 2 -15 12 -22 15 -12 16 -12 5 2 -7 9 -10 19 -6 22 3
4 4 7 0 7 -3 0 -8 -4 -11 -9z"/>
<path d="M70 371 c0 -6 4 -13 10 -16 6 -3 7 1 4 9 -7 18 -14 21 -14 7z"/>
<path d="M96 312 c-2 -4 -1 -14 4 -22 7 -11 9 -9 7 8 -1 24 -3 26 -11 14z"/>
<path d="M137 285 c-4 -8 -3 -16 1 -19 4 -3 9 4 9 15 2 23 -3 25 -10 4z"/>
<path d="M134 226 c1 -8 5 -18 8 -22 4 -3 5 1 4 10 -1 8 -5 18 -8 22 -4 3 -5
-1 -4 -10z"/>
<path d="M179 198 c-5 -18 -6 -38 -1 -34 7 8 12 36 6 36 -2 0 -4 -1 -5 -2z"/>
<path d="M255 151 c-3 -5 -2 -12 3 -15 5 -3 9 1 9 9 0 17 -3 19 -12 6z"/>
<path d="M316 123 c-6 -14 -5 -15 5 -6 7 7 10 15 7 18 -3 3 -9 -2 -12 -12z"/>
<path d="M214 112 c4 -3 14 -7 22 -8 9 -1 13 0 10 4 -4 3 -14 7 -22 8 -9 1
-13 0 -10 -4z"/>
<path d="M454 86 c1 -8 5 -18 8 -22 4 -3 5 1 4 10 -1 8 -5 18 -8 22 -4 3 -5
-1 -4 -10z"/>
<path d="M274 72 c4 -3 14 -7 22 -8 9 -1 13 0 10 4 -4 3 -14 7 -22 8 -9 1 -13
0 -10 -4z"/>
<path d="M334 72 c4 -3 14 -7 22 -8 9 -1 13 0 10 4 -4 3 -14 7 -22 8 -9 1 -13
0 -10 -4z"/>
<path d="M536 68 c3 -5 10 -6 15 -3 13 9 11 12 -6 12 -8 0 -12 -4 -9 -9z"/>
</g>
</svg>
